<svg width="871" height="518" viewBox="0 0 871 518" fill="none" xmlns="http://www.w3.org/2000/svg">
<path d="M45.3464 512L312.692 70.7608C317.934 42.4762 308.761 -7.3046 230.13 19.8486C131.841 53.7901 -5.76382 198.04 13.894 215.011C33.5518 231.982 379.529 121.672 312.692 215.011C259.223 289.682 112.183 347.948 45.3464 367.747C137.083 355.019 322.914 350.777 332.35 435.63M352.008 299.865C328.418 261.68 226.198 270.166 273.377 359.262C316.624 422.902 387.392 388.961 352.008 299.865ZM352.008 299.865L418.844 388.961L355.939 291.379C386.081 254.609 462.091 219.253 446.365 287.136C443.744 297.036 432.998 323.624 410.981 333.806C383.46 346.534 414.72 308.35 426.707 308.35C442.434 301.573 517.133 312.593 501.407 342.291C492.233 360.676 467.596 395.749 442.434 388.961C417.272 382.173 500.096 301.279 544.654 261.68M544.654 261.68C565.622 243.295 609.918 209.071 619.354 219.253C631.148 231.982 639.011 282.894 623.285 363.505C607.559 444.116 591.833 219.254 666.532 215.011C726.292 211.617 652.117 275.823 607.559 308.35C636.39 294.208 696.412 278.651 705.848 329.563C749.095 321.078 749.095 312.593 753.027 304.107C756.172 297.319 754.337 244.71 753.027 219.253H705.848C735.99 216.425 854.71 180.182 861 170M544.654 261.68C538.332 278.167 530.486 301.281 524.996 323.031M587.901 359.262C578.728 367.747 554.09 384.718 528.928 384.718C513.881 384.718 516.83 355.385 524.996 323.031M580.038 278.651L524.996 323.031" stroke="black" stroke-width="23"/>
</svg>
