<svg width="573" height="703" viewBox="0 0 573 703" fill="none" xmlns="http://www.w3.org/2000/svg">
<path d="M100.234 527.341C-37.3981 558.78 4.03992 306.514 91.3189 394.529C50.7134 333.32 24.3867 299.942 44.3649 217.023C-2.24914 169.005 -19.4802 12.2904 128.223 69.2694C174.724 93.3469 176.605 51.3213 204.021 26.798C229.314 4.173 276.341 -3.55441 400.194 69.2705C499.222 33.1246 574.752 138.438 510.972 198.168C547.897 251.61 520.755 338.538 478.821 394.529C566.111 306.522 611.86 558.778 474.211 527.341M113.563 206.026C134.394 235.26 146.75 229.604 215.566 206.026C365.419 139.497 444.216 132.856 467.714 253.885L484.597 440.112C484.597 774.128 85.1281 777.272 85.1281 440.112L113.563 206.026Z" stroke="#FAFAF2" stroke-width="22"/>
<path d="M35.1494 450.663C38.3421 450.663 41.7469 451.302 44.6155 452.614C50.2116 455.173 57.3773 460.374 60.3836 465.603C65.1707 473.928 69.0789 483.964 70.7463 493.333" stroke="#FAFAF2" stroke-width="14" stroke-linecap="round"/>
<path d="M533.127 451.233C529.936 451.233 526.533 451.872 523.665 453.183C518.071 455.742 510.908 460.941 507.903 466.169C503.118 474.492 499.211 484.526 497.544 493.893" stroke="#FAFAF2" stroke-width="14" stroke-linecap="round"/>
<path d="M362.262 364.781C362.262 354.364 371.279 355.35 382.403 355.35C393.527 355.35 402.545 354.364 402.545 364.781V402.505H387.439L402.545 421.367V424.511C402.545 434.928 393.527 443.373 382.403 443.373C371.279 443.373 362.262 434.928 362.262 424.511V364.781Z" fill="#FAFAF2"/>
<path d="M170.919 364.781C170.919 354.364 179.937 355.35 191.061 355.35C202.184 355.35 211.202 354.364 211.202 364.781V402.505H196.096L211.202 421.367V424.511C211.202 434.928 202.184 443.373 191.061 443.373C179.937 443.373 170.919 434.928 170.919 424.511V364.781Z" fill="#FAFAF2"/>
<path d="M121.067 347.502C120.548 345.915 120.428 344.224 120.719 342.58L122.311 333.559C123.203 328.504 124.993 323.651 127.596 319.227V319.227C132.36 311.131 139.645 304.817 148.336 301.251L158.859 296.935C164.697 294.54 170.807 292.874 177.052 291.975L199.945 288.678C221.722 285.541 244.059 292.126 260.826 306.374V306.374C261.07 306.581 261.113 306.947 260.919 307.201V307.201C251.895 318.997 237.891 325.916 223.04 325.916H212.118C204.333 325.916 196.603 327.218 189.248 329.769L147.924 344.102C146.054 344.751 144.333 345.767 142.861 347.09L137.518 351.898C132.058 356.811 123.349 354.484 121.067 347.502V347.502Z" fill="#FAFAF2"/>
<path d="M445.639 298.098C446.348 296.48 446.614 294.707 446.409 292.96L445.497 285.189C444.926 280.319 443.431 275.609 441.093 271.312L440.981 271.106C436.881 263.572 430.442 257.583 422.623 254.033L411.105 248.804C405.675 246.338 399.974 244.505 394.114 243.342L369.837 238.522C348.953 234.376 327.203 238.815 309.49 250.839L309.148 251.072C308.867 251.263 308.797 251.646 308.994 251.919V251.919C317.219 263.344 330.139 270.476 344.25 271.38L356.615 272.173C364.235 272.662 371.722 274.326 378.811 277.108L419.209 292.958C421.03 293.673 422.693 294.731 424.109 296.075L429.715 301.396C434.68 306.11 442.87 304.413 445.639 298.098V298.098Z" fill="#FAFAF2"/>
<path d="M286.172 419.803H298.481L274.983 459.958L298.481 485.121C283.414 481.416 261.555 464.949 261.555 464.949C261.555 464.949 263 452.453 286.172 419.803Z" fill="#FAFAF2"/>
<path d="M254.841 539.256L257.01 540.823C277.584 555.696 305.544 555.055 325.416 539.256V539.256" stroke="#FAFAF2" stroke-width="22"/>
<path d="M254.841 634.424L255.89 632.905C272.87 608.33 309.447 609.13 325.336 634.424V634.424" stroke="#FAFAF2" stroke-width="6"/>
</svg>
